<mxfile host="drawio-plugin" modified="2021-09-06T14:21:12.619Z" agent="5.0 (Windows NT 6.2; Win64; x64) AppleWebKit/537.36 (KHTML, like Gecko) Chrome/89.0.4389.114 Safari/537.36" version="14.7.4" etag="3v2OZQsWESnf9fUa684_" type="embed"><diagram id="G80cj3eV3rtsx8o-65zR" name="Page-1"><mxGraphModel dx="417" dy="719" grid="1" gridSize="10" guides="1" tooltips="1" connect="1" arrows="1" fold="1" page="1" pageScale="1" pageWidth="1100" pageHeight="850" math="0" shadow="0"><root><mxCell id="0"/><mxCell id="1" parent="0"/><mxCell id="2" value="Car" style="swimlane;fontStyle=1;align=center;verticalAlign=top;childLayout=stackLayout;horizontal=1;startSize=26;horizontalStack=0;resizeParent=1;resizeParentMax=0;resizeLast=0;collapsible=1;marginBottom=0;" vertex="1" parent="1"><mxGeometry x="470" y="170" width="160" height="108" as="geometry"/></mxCell><mxCell id="3" value="+ price: number&#10;+ model: string" style="text;strokeColor=none;fillColor=none;align=left;verticalAlign=top;spacingLeft=4;spacingRight=4;overflow=hidden;rotatable=0;points=[[0,0.5],[1,0.5]];portConstraint=eastwest;" vertex="1" parent="2"><mxGeometry y="26" width="160" height="34" as="geometry"/></mxCell><mxCell id="4" value="" style="line;strokeWidth=1;fillColor=none;align=left;verticalAlign=middle;spacingTop=-1;spacingLeft=3;spacingRight=3;rotatable=0;labelPosition=right;points=[];portConstraint=eastwest;" vertex="1" parent="2"><mxGeometry y="60" width="160" height="8" as="geometry"/></mxCell><mxCell id="5" value="+ getPrice(): number&#10;+ getDescription(): string" style="text;strokeColor=none;fillColor=none;align=left;verticalAlign=top;spacingLeft=4;spacingRight=4;overflow=hidden;rotatable=0;points=[[0,0.5],[1,0.5]];portConstraint=eastwest;" vertex="1" parent="2"><mxGeometry y="68" width="160" height="40" as="geometry"/></mxCell><mxCell id="6" value="Tesla" style="swimlane;fontStyle=1;align=center;verticalAlign=top;childLayout=stackLayout;horizontal=1;startSize=26;horizontalStack=0;resizeParent=1;resizeParentMax=0;resizeLast=0;collapsible=1;marginBottom=0;" vertex="1" parent="1"><mxGeometry x="470" y="350" width="160" height="110" as="geometry"/></mxCell><mxCell id="7" value="+ price: number&#10;+ model: string" style="text;strokeColor=none;fillColor=none;align=left;verticalAlign=top;spacingLeft=4;spacingRight=4;overflow=hidden;rotatable=0;points=[[0,0.5],[1,0.5]];portConstraint=eastwest;" vertex="1" parent="6"><mxGeometry y="26" width="160" height="34" as="geometry"/></mxCell><mxCell id="8" value="" style="line;strokeWidth=1;fillColor=none;align=left;verticalAlign=middle;spacingTop=-1;spacingLeft=3;spacingRight=3;rotatable=0;labelPosition=right;points=[];portConstraint=eastwest;" vertex="1" parent="6"><mxGeometry y="60" width="160" height="8" as="geometry"/></mxCell><mxCell id="9" value="+ getPrice(): number&#10;+ getDescription(): string" style="text;strokeColor=none;fillColor=none;align=left;verticalAlign=top;spacingLeft=4;spacingRight=4;overflow=hidden;rotatable=0;points=[[0,0.5],[1,0.5]];portConstraint=eastwest;" vertex="1" parent="6"><mxGeometry y="68" width="160" height="42" as="geometry"/></mxCell><mxCell id="10" value="Extends" style="endArrow=block;endSize=16;endFill=0;html=1;exitX=0.5;exitY=0;exitDx=0;exitDy=0;entryX=0.5;entryY=1.02;entryDx=0;entryDy=0;entryPerimeter=0;noLabel=1;fontColor=none;" edge="1" parent="1" source="6" target="5"><mxGeometry x="-0.2" y="-4" width="160" relative="1" as="geometry"><mxPoint x="470" y="270" as="sourcePoint"/><mxPoint x="550" y="310" as="targetPoint"/><mxPoint as="offset"/></mxGeometry></mxCell><mxCell id="16" value="1" style="endArrow=open;html=1;endSize=12;startArrow=diamondThin;startSize=14;startFill=0;edgeStyle=orthogonalEdgeStyle;align=left;verticalAlign=bottom;entryX=1;entryY=0.5;entryDx=0;entryDy=0;exitX=0.5;exitY=0;exitDx=0;exitDy=0;noLabel=1;fontColor=none;" edge="1" parent="1" source="11" target="3"><mxGeometry x="-1" y="3" relative="1" as="geometry"><mxPoint x="730" y="310" as="sourcePoint"/><mxPoint x="590" y="310" as="targetPoint"/></mxGeometry></mxCell><mxCell id="21" value="Parktronic" style="swimlane;fontStyle=1;align=center;verticalAlign=top;childLayout=stackLayout;horizontal=1;startSize=26;horizontalStack=0;resizeParent=1;resizeParentMax=0;resizeLast=0;collapsible=1;marginBottom=0;" vertex="1" parent="1"><mxGeometry x="700" y="375" width="160" height="100" as="geometry"/></mxCell><mxCell id="22" value="- car: Car" style="text;strokeColor=none;fillColor=none;align=left;verticalAlign=top;spacingLeft=4;spacingRight=4;overflow=hidden;rotatable=0;points=[[0,0.5],[1,0.5]];portConstraint=eastwest;" vertex="1" parent="21"><mxGeometry y="26" width="160" height="26" as="geometry"/></mxCell><mxCell id="23" value="" style="line;strokeWidth=1;fillColor=none;align=left;verticalAlign=middle;spacingTop=-1;spacingLeft=3;spacingRight=3;rotatable=0;labelPosition=right;points=[];portConstraint=eastwest;" vertex="1" parent="21"><mxGeometry y="52" width="160" height="8" as="geometry"/></mxCell><mxCell id="24" value="+ getPrice(): number&#10;+ getDescription(): string" style="text;strokeColor=none;fillColor=none;align=left;verticalAlign=top;spacingLeft=4;spacingRight=4;overflow=hidden;rotatable=0;points=[[0,0.5],[1,0.5]];portConstraint=eastwest;" vertex="1" parent="21"><mxGeometry y="60" width="160" height="40" as="geometry"/></mxCell><mxCell id="11" value="Autopilot" style="swimlane;fontStyle=1;align=center;verticalAlign=top;childLayout=stackLayout;horizontal=1;startSize=26;horizontalStack=0;resizeParent=1;resizeParentMax=0;resizeLast=0;collapsible=1;marginBottom=0;" vertex="1" parent="1"><mxGeometry x="680" y="362" width="160" height="100" as="geometry"/></mxCell><mxCell id="12" value="- car: Car" style="text;strokeColor=none;align=left;verticalAlign=top;spacingLeft=4;spacingRight=4;overflow=hidden;rotatable=0;points=[[0,0.5],[1,0.5]];portConstraint=eastwest;fillColor=#2a2a2a;" vertex="1" parent="11"><mxGeometry y="26" width="160" height="26" as="geometry"/></mxCell><mxCell id="13" value="" style="line;strokeWidth=1;fillColor=none;align=left;verticalAlign=middle;spacingTop=-1;spacingLeft=3;spacingRight=3;rotatable=0;labelPosition=right;points=[];portConstraint=eastwest;" vertex="1" parent="11"><mxGeometry y="52" width="160" height="8" as="geometry"/></mxCell><mxCell id="14" value="+ getPrice(): number&#10;+ getDescription(): string" style="text;strokeColor=none;align=left;verticalAlign=top;spacingLeft=4;spacingRight=4;overflow=hidden;rotatable=0;points=[[0,0.5],[1,0.5]];portConstraint=eastwest;fillColor=#2a2a2a;" vertex="1" parent="11"><mxGeometry y="60" width="160" height="40" as="geometry"/></mxCell></root></mxGraphModel></diagram></mxfile>